# xmcd CD database file
#
# Track frame offsets:
#	150
#	12895
#	25637
#	43665
#	61698
#	90063
#	118405
#	148483
#	178576
#	202959
#
# Disc length: 2966 seconds
#
# Revision: 0
# Processed by: cddbd v1.5.1PL2 Copyright (c) Steve Scherf et al.
# Submitted via: CDex 1.51
#
DISCID=7d0b940a
DTITLE=たまソフト - LOST CHILD LaOX特典 LaOX Original of Contents Special Version
DYEAR=2006
DGENRE=Game
TTITLE0=魂の慟哭. rimix short ver
TTITLE1=魂の慟哭. rimix short ver(inst)
TTITLE2=この世の果て rimix ver
TTITLE3=この世の果て rimix ver(inst)
TTITLE4=月の眼の少年 remix ver
TTITLE5=月の眼の少年 remix ver(inst)
TTITLE6=百の想い remix ver
TTITLE7=百の想い remix ver(inst)
TTITLE8=埼玉最終兵器 - サイバー没!2006version (BonusTrack)
TTITLE9=DATA
EXTD=YEAR: 2006
EXTT0=
EXTT1=
EXTT2=
EXTT3=
EXTT4=
EXTT5=
EXTT6=
EXTT7=
EXTT8=
EXTT9=
PLAYORDER=
